# xmcd
#
# Track frame offsets: 
#        150
#        17456
#        85016
#        103694
#        139541
#        177530
#        208843
#        248759
#        269529
#        327426
#
# Disc length: 4552 seconds
#
# Revision: 3
# Processed by: cddbd v1.5.2PL0 Copyright (c) Steve Scherf et al.
# Submitted via: ExactAudioCopy v0.99pb4
#
DISCID=8811c60a
DTITLE=Jimi Hendrix - Martin Scorsese Presents the Blues
DYEAR=2003
DGENRE=Blues
TTITLE0=Red House
TTITLE1=Voodoo Chile
TTITLE2=Come On (Let the Good Times Roll)
TTITLE3=Georgia Blues [#]
TTITLE4=Country Blues
TTITLE5=Hear My Train a Comin'
TTITLE6=It's Too Bad
TTITLE7=My Friend
TTITLE8=Blue Window [#]
TTITLE9=Midnight Lightning
EXTD=ID3G:  20 YEAR: 2003
EXTT0=
EXTT1=
EXTT2=
EXTT3=
EXTT4=
EXTT5=
EXTT6=
EXTT7=
EXTT8=
EXTT9=
PLAYORDER=
